<svg xmlns="http://www.w3.org/2000/svg" width="32" height="32" viewBox="0 0 32 32"><path fill="#95e1d3" d="M29.873 10.826a14.794 14.794 0 0 0-7.757-7.758 5.506 5.506 0 0 1 3.415-1.186 5.53 5.53 0 0 1 5.529 5.529 5.5 5.5 0 0 1-1.186 3.415zm-.226 6.115c0 3.626-1.423 6.911-3.729 9.355l1.909 1.909a1.396 1.396 0 1 1-1.974 1.974l-2.05-2.05a13.571 13.571 0 0 1-7.802 2.459c-2.898 0-5.579-.909-7.789-2.45l-2.036 2.036a1.41 1.41 0 0 1-2.41-.998c0-.389.158-.743.413-.998l1.894-1.893a13.585 13.585 0 0 1-3.719-9.344c0-7.537 6.11-13.647 13.647-13.647s13.647 6.11 13.647 13.647zM16 6.117c-5.978 0-10.824 4.846-10.824 10.824S10.022 27.765 16 27.765s10.823-4.846 10.823-10.824S21.977 6.117 16 6.117zm5.647 12.236H16c-.78 0-1.412-.632-1.412-1.412v-7.53a1.412 1.412 0 0 1 2.824 0v6.118h4.235a1.412 1.412 0 1 1 0 2.824zM2.153 11.017A5.613 5.613 0 0 1 .941 7.529a5.647 5.647 0 0 1 5.647-5.647 5.62 5.62 0 0 1 3.488 1.211 15.112 15.112 0 0 0-7.923 7.923z"/></svg>