<svg xmlns="http://www.w3.org/2000/svg" width="33" height="32" viewBox="0 0 33 32"><path fill="#95e1d3" d="M31.12 25.308L17.5 30.944a1.404 1.404 0 0 1-1.118 0l-13.62-5.636A1.412 1.412 0 0 1 1.882 24V2.353a1.41 1.41 0 0 1 1.952-1.304l.002.001.013.005 13.092 5.417 13.092-5.417.013-.005.002-.001A1.412 1.412 0 0 1 32 2.353V24c0 .591-.364 1.098-.88 1.308zM15.529 8.944L4.705 4.465v18.591l10.824 4.479V8.944zm13.647-4.479L18.352 8.944v18.591l10.824-4.479V4.465zm-8.584 6.485l5.177-2.353a1.412 1.412 0 0 1 1.168 2.57L21.76 13.52a1.412 1.412 0 0 1-1.168-2.57zm0 5.177l5.177-2.353a1.412 1.412 0 0 1 1.168 2.57l-5.177 2.353v-.001a1.412 1.412 0 0 1-1.168-2.569zm0 5.176l5.177-2.353a1.412 1.412 0 0 1 1.168 2.57l-5.177 2.353a1.412 1.412 0 0 1-1.168-2.57zM7.529 8.47c.208 0 .406.045.584.127l5.176 2.353a1.412 1.412 0 1 1-1.168 2.57l-5.176-2.353a1.412 1.412 0 0 1 .584-2.697zm0 5.177c.208 0 .406.046.584.126l5.176 2.353a1.412 1.412 0 1 1-1.168 2.569v.001l-5.176-2.353a1.41 1.41 0 0 1 .584-2.696zm0 5.176c.208 0 .406.046.584.127l5.176 2.353a1.412 1.412 0 1 1-1.168 2.57L6.945 21.52a1.412 1.412 0 0 1 .584-2.697z"/></svg>