<svg xmlns="http://www.w3.org/2000/svg" width="35" height="32" viewBox="0 0 35 32"><path fill="#95e1d3" d="M32 25.806h-9.807v2.58l2.065 2.065v.516H10.839v-.516l2.065-2.065v-2.58H3.098a1.548 1.548 0 0 1-1.548-1.549V3.612c0-.855.693-1.548 1.548-1.548h28.903c.855 0 1.548.693 1.548 1.548v20.645c0 .855-.693 1.549-1.548 1.549zm-.516-21.677H3.613v17.548h27.871V4.129zm-17.032 7.226c.428 0 .815.174 1.095.453l.97.97 3.034-3.034a1.548 1.548 0 1 1 2.19 2.19l-4.129 4.129a1.544 1.544 0 0 1-2.19 0l-2.064-2.065a1.549 1.549 0 0 1 1.094-2.644z"/></svg>