<svg xmlns="http://www.w3.org/2000/svg" width="34" height="32" viewBox="0 0 34 32"><path fill="#95e1d3" d="M32.97 16.969c0 .803-.651 1.454-1.455 1.454-.383 0-.729-.151-.989-.393l-.004.003L17.491 5.002v-.001l-.037-.035v-.001L4.415 18.004l-.001-.001a1.455 1.455 0 1 1-2.029-2.084l14.02-14.02a1.45 1.45 0 0 1 1.048-.447h.001l.077.002.012.001c.022.002.044.003.065.006l.004.001c.356.039.673.206.905.454l.001-.001 5.723 5.723V6.301a1.455 1.455 0 0 1 2.91 0v4.246l5.428 5.428-.003.004c.242.26.393.606.393.989zm-2.909 2.425v10.182c0 .803-.651 1.455-1.455 1.455h-2.909V19.394h-5.818v11.637H6.303a1.455 1.455 0 0 1-1.455-1.455V19.394L17.454 6.788 30.06 19.394zm-15.031 0H9.212v5.819h5.818v-5.819z"/></svg>