<svg xmlns="http://www.w3.org/2000/svg" width="34" height="32" viewBox="0 0 34 32"><path fill="#95e1d3" d="M30.588 31.059H3.294c-.78 0-1.412-.632-1.412-1.412V2.353c0-.78.632-1.411 1.412-1.411h27.294c.78 0 1.412.632 1.412 1.411v27.294c0 .78-.632 1.412-1.412 1.412zM29.177 3.765H4.706v24.47h24.471V3.765zM8 5.176h5.176a1.412 1.412 0 1 1 0 2.823H8.941v4.235a1.412 1.412 0 1 1-2.824 0V5.175h1.882zM6.118 19.764a1.412 1.412 0 1 1 2.824 0v4.235h4.235V24a1.412 1.412 0 1 1 0 2.823H6.119v-7.059zM20.706 5.176h7.058v7.059a1.412 1.412 0 1 1-2.824 0V8h-4.235a1.412 1.412 0 1 1 0-2.823zm0 18.824v-.001h4.235v-4.235a1.412 1.412 0 1 1 2.824 0v7.059h-7.058a1.412 1.412 0 1 1 0-2.823z"/></svg>