<svg xmlns="http://www.w3.org/2000/svg" width="32" height="32" viewBox="0 0 32 32"><path fill="#f38181" d="M27.086 30.628H5.143a3.657 3.657 0 0 1-3.657-3.657V5.028a3.657 3.657 0 0 1 3.657-3.657h21.943a3.657 3.657 0 0 1 3.657 3.657v21.943a3.657 3.657 0 0 1-3.657 3.657zM16.114 10.331a5.665 5.665 0 0 0-5.141 3.292h-.005l-.025.063c-.054.12-.101.243-.147.367-.022.06-.045.118-.065.178a5.715 5.715 0 0 0-.109.388c-.015.061-.034.121-.047.183-.03.138-.05.279-.07.42-.008.057-.02.113-.026.171a5.668 5.668 0 0 0 5.636 6.275 5.668 5.668 0 0 0 5.636-6.275c-.006-.058-.018-.114-.026-.171a5.746 5.746 0 0 0-.07-.42c-.013-.062-.032-.122-.047-.183a5.557 5.557 0 0 0-.109-.388c-.02-.06-.043-.118-.065-.178a5.847 5.847 0 0 0-.147-.367l-.025-.063h-.005a5.666 5.666 0 0 0-5.141-3.292zm11.337-4.206c0-.808-.655-1.463-1.463-1.463h-2.926c-.808 0-1.463.655-1.463 1.463v2.926c0 .808.655 1.463 1.463 1.463h2.926c.808 0 1.463-.655 1.463-1.463V6.125zm0 7.497h-2.697a8.96 8.96 0 1 1-17.28 0H4.777v12.251c0 .809.655 1.463 1.463 1.463h19.749c.808 0 1.463-.655 1.463-1.463V13.622z"/></svg>