<svg xmlns="http://www.w3.org/2000/svg" width="32" height="32" viewBox="0 0 32 32"><path fill="#95e1d3" d="M28.8 31.086H2.286a1.371 1.371 0 0 1-1.371-1.372V3.2c0-.757.614-1.371 1.371-1.371H28.8c.757 0 1.372.614 1.372 1.371v26.514c0 .757-.614 1.372-1.372 1.372zM27.429 4.571H3.658v23.772h23.771V4.571zM5.683 16.675l-.001-.001 3.657-2.286.001.001a1.367 1.367 0 0 1 1.485.032l.005-.008 6.062 4.041 6.984-4.929a1.371 1.371 0 0 1 1.612 2.218v.001l-7.771 5.486v-.001a1.368 1.368 0 0 1-1.591.011l-6.086-4.057-2.867 1.792a1.371 1.371 0 0 1-1.491-2.301z"/></svg>