<svg xmlns="http://www.w3.org/2000/svg" width="25" height="32" viewBox="0 0 25 32"><path fill="#f38181" d="M11.091 19.701c-.231.919-.463 1.883-.704 2.825-.238.929-.446 1.871-.792 2.725-.573 1.414-1.3 2.78-2.255 3.886-.634.736-.499.442-.69.402-.146-.03-.158-.173-.187-.38-.155-1.124-.05-2.422.008-3.685.066-1.438.368-2.635.649-3.83.535-2.277 1.044-4.51 1.584-6.801.036-.152.133-.405.099-.491-.244-.637-.403-1.208-.473-1.876a5.968 5.968 0 0 1 .154-2.144c.305-1.167 1.007-2.202 2.09-2.58.688-.239 1.451-.131 1.914.146.477.285.804.735.957 1.374.163.679.043 1.491-.088 2.088-.295 1.344-.682 2.354-1.034 3.652-.175.644-.372 1.305-.209 1.999.15.638.482 1.077.935 1.407.469.342 1.025.529 1.793.503 1.355-.047 2.296-.914 2.926-1.73 1.006-1.307 1.616-3.072 1.848-5.171.075-.677.129-1.455.077-2.222-.096-1.417-.54-2.556-1.243-3.439-.669-.841-1.618-1.511-2.772-1.888-1.144-.374-2.729-.498-4.136-.257-2.557.438-4.36 1.891-5.423 3.898a7.815 7.815 0 0 0-.924 3.763c0 1.159.286 2.058.748 2.758.146.222.362.405.506.659.204.36-.031.895-.132 1.284-.121.469-.134 1.117-.682 1.128-.227.004-.512-.162-.704-.268-1.439-.796-2.314-2.243-2.673-4.121a9.864 9.864 0 0 1 0-3.573c.21-1.066.601-2.05 1.034-2.848.898-1.658 2.215-2.984 3.817-3.931 1.232-.729 2.621-1.239 4.311-1.485a18.003 18.003 0 0 1 1.771-.145c1.84-.087 3.514.33 4.774.893a9.752 9.752 0 0 1 3.288 2.368c.924 1.009 1.597 2.184 2.024 3.652.222.763.439 1.58.439 2.524 0 .946-.2 1.78-.34 2.613-.523 3.121-2.007 5.673-4.235 7.125a7.306 7.306 0 0 1-1.936.893c-.736.215-1.576.375-2.475.313a5.07 5.07 0 0 1-2.189-.637c-.596-.337-1.097-.749-1.452-1.373z"/></svg>