<svg xmlns="http://www.w3.org/2000/svg" width="37" height="32" viewBox="0 0 37 32"><path fill="#f38181" d="M24.683 2.135c2.713-.049 4.156.94 5.535 2.197 1.171-.1 2.692-.754 3.588-1.21l.871-.476c-.512 1.383-1.206 2.465-2.272 3.287-.237.182-.472.429-.769.545v.017c1.52-.015 2.773-.701 3.963-1.073v.018c-.625.993-1.472 2.002-2.375 2.725l-1.093.868c.02 1.609-.024 3.145-.325 4.497-1.749 7.86-6.383 13.196-13.718 15.482-2.634.821-6.891 1.158-9.909.409-1.497-.371-2.848-.791-4.117-1.345a16.344 16.344 0 0 1-1.982-1.023l-.615-.374c.681.021 1.477.208 2.238.085.688-.111 1.364-.082 1.999-.221 1.584-.348 2.991-.808 4.203-1.516.587-.344 1.479-.747 1.896-1.243-.787.014-1.5-.169-2.084-.375-2.265-.799-3.584-2.271-4.442-4.48.686.076 2.664.254 3.126-.136-.864-.048-1.695-.548-2.289-.92-1.822-1.14-3.308-3.052-3.297-5.995l.717.34c.458.193.923.296 1.469.409.231.048.692.183.957.084h-.034c-.353-.409-.927-.684-1.281-1.124-1.169-1.453-2.265-3.689-1.572-6.353.176-.676.455-1.272.752-1.822l.034.017c.136.285.44.494.632.733.597.74 1.334 1.406 2.084 1.992 2.557 2 4.86 3.229 8.559 4.139.938.231 2.023.408 3.143.409-.315-.917-.214-2.4.034-3.288.623-2.231 1.977-3.839 3.963-4.7a8.407 8.407 0 0 1 1.555-.478l.854-.102z"/></svg>