<svg aria-hidden="true" style="position:absolute;width:0;height:0" xmlns="http://www.w3.org/2000/svg" overflow="hidden"><defs><symbol id="icon-ALARM" viewBox="0 0 32 32"><path d="M29.873 10.826a14.794 14.794 0 0 0-7.757-7.758 5.506 5.506 0 0 1 3.415-1.186 5.53 5.53 0 0 1 5.529 5.529 5.5 5.5 0 0 1-1.186 3.415zm-.226 6.115c0 3.626-1.423 6.911-3.729 9.355l1.909 1.909a1.396 1.396 0 1 1-1.974 1.974l-2.05-2.05a13.571 13.571 0 0 1-7.802 2.459c-2.898 0-5.579-.909-7.789-2.45l-2.036 2.036a1.41 1.41 0 0 1-2.41-.998c0-.389.158-.743.413-.998l1.894-1.893a13.585 13.585 0 0 1-3.719-9.344c0-7.537 6.11-13.647 13.647-13.647s13.647 6.11 13.647 13.647zM16 6.117c-5.978 0-10.824 4.846-10.824 10.824S10.022 27.765 16 27.765s10.823-4.846 10.823-10.824S21.977 6.117 16 6.117zm5.647 12.236H16c-.78 0-1.412-.632-1.412-1.412v-7.53a1.412 1.412 0 0 1 2.824 0v6.118h4.235a1.412 1.412 0 1 1 0 2.824zM2.153 11.017A5.613 5.613 0 0 1 .941 7.529a5.647 5.647 0 0 1 5.647-5.647 5.62 5.62 0 0 1 3.488 1.211 15.112 15.112 0 0 0-7.923 7.923z"/></symbol><symbol id="icon-BOOK-2" viewBox="0 0 33 32"><path d="M31.12 25.308L17.5 30.944a1.404 1.404 0 0 1-1.118 0l-13.62-5.636A1.412 1.412 0 0 1 1.882 24V2.353a1.41 1.41 0 0 1 1.952-1.304l.002.001.013.005 13.092 5.417 13.092-5.417.013-.005.002-.001A1.412 1.412 0 0 1 32 2.353V24c0 .591-.364 1.098-.88 1.308zM15.529 8.944L4.705 4.465v18.591l10.824 4.479V8.944zm13.647-4.479L18.352 8.944v18.591l10.824-4.479V4.465zm-8.584 6.485l5.177-2.353a1.412 1.412 0 0 1 1.168 2.57L21.76 13.52a1.412 1.412 0 0 1-1.168-2.57zm0 5.177l5.177-2.353a1.412 1.412 0 0 1 1.168 2.57l-5.177 2.353v-.001a1.412 1.412 0 0 1-1.168-2.569zm0 5.176l5.177-2.353a1.412 1.412 0 0 1 1.168 2.57l-5.177 2.353a1.412 1.412 0 0 1-1.168-2.57zM7.529 8.47c.208 0 .406.045.584.127l5.176 2.353a1.412 1.412 0 1 1-1.168 2.57l-5.176-2.353a1.412 1.412 0 0 1 .584-2.697zm0 5.177c.208 0 .406.046.584.126l5.176 2.353a1.412 1.412 0 1 1-1.168 2.569v.001l-5.176-2.353a1.41 1.41 0 0 1 .584-2.696zm0 5.176c.208 0 .406.046.584.127l5.176 2.353a1.412 1.412 0 1 1-1.168 2.57L6.945 21.52a1.412 1.412 0 0 1 .584-2.697z"/></symbol><symbol id="icon-COMPUTER-_-OK" viewBox="0 0 35 32"><path d="M32 25.806h-9.807v2.58l2.065 2.065v.516H10.839v-.516l2.065-2.065v-2.58H3.098a1.548 1.548 0 0 1-1.548-1.549V3.612c0-.855.693-1.548 1.548-1.548h28.903c.855 0 1.548.693 1.548 1.548v20.645c0 .855-.693 1.549-1.548 1.549zm-.516-21.677H3.613v17.548h27.871V4.129zm-17.032 7.226c.428 0 .815.174 1.095.453l.97.97 3.034-3.034a1.548 1.548 0 1 1 2.19 2.19l-4.129 4.129a1.544 1.544 0 0 1-2.19 0l-2.064-2.065a1.549 1.549 0 0 1 1.094-2.644z"/></symbol><symbol id="icon-facebook" viewBox="0 0 17 32"><path d="M14.443 2.426v4.547s-3.352-.334-4.191.95c-.459.702-.187 2.758-.227 4.234h4.446c-.376 1.726-.645 2.896-.921 4.39h-3.549v14.128H3.842V16.602H1.221v-4.446h2.592c.133-3.25.183-6.471 1.797-8.11 1.815-1.843 3.545-1.622 8.834-1.622z"/></symbol><symbol id="icon-HOME" viewBox="0 0 34 32"><path d="M32.97 16.969c0 .803-.651 1.454-1.455 1.454-.383 0-.729-.151-.989-.393l-.004.003L17.491 5.002v-.001l-.037-.035v-.001L4.415 18.004l-.001-.001a1.455 1.455 0 1 1-2.029-2.084l14.02-14.02a1.45 1.45 0 0 1 1.048-.447h.001l.077.002.012.001c.022.002.044.003.065.006l.004.001c.356.039.673.206.905.454l.001-.001 5.723 5.723V6.301a1.455 1.455 0 0 1 2.91 0v4.246l5.428 5.428-.003.004c.242.26.393.606.393.989zm-2.909 2.425v10.182c0 .803-.651 1.455-1.455 1.455h-2.909V19.394h-5.818v11.637H6.303a1.455 1.455 0 0 1-1.455-1.455V19.394L17.454 6.788 30.06 19.394zm-15.031 0H9.212v5.819h5.818v-5.819z"/></symbol><symbol id="icon-IMAGE" viewBox="0 0 34 32"><path d="M30.588 31.059H3.294c-.78 0-1.412-.632-1.412-1.412V2.353c0-.78.632-1.411 1.412-1.411h27.294c.78 0 1.412.632 1.412 1.411v27.294c0 .78-.632 1.412-1.412 1.412zM29.177 3.765H4.706v24.47h24.471V3.765zM8 5.176h5.176a1.412 1.412 0 1 1 0 2.823H8.941v4.235a1.412 1.412 0 1 1-2.824 0V5.175h1.882zM6.118 19.764a1.412 1.412 0 1 1 2.824 0v4.235h4.235V24a1.412 1.412 0 1 1 0 2.823H6.119v-7.059zM20.706 5.176h7.058v7.059a1.412 1.412 0 1 1-2.824 0V8h-4.235a1.412 1.412 0 1 1 0-2.823zm0 18.824v-.001h4.235v-4.235a1.412 1.412 0 1 1 2.824 0v7.059h-7.058a1.412 1.412 0 1 1 0-2.823z"/></symbol><symbol id="icon-instagram" viewBox="0 0 32 32"><path d="M27.086 30.628H5.143a3.657 3.657 0 0 1-3.657-3.657V5.028a3.657 3.657 0 0 1 3.657-3.657h21.943a3.657 3.657 0 0 1 3.657 3.657v21.943a3.657 3.657 0 0 1-3.657 3.657zM16.114 10.331a5.665 5.665 0 0 0-5.141 3.292h-.005l-.025.063c-.054.12-.101.243-.147.367-.022.06-.045.118-.065.178a5.715 5.715 0 0 0-.109.388c-.015.061-.034.121-.047.183-.03.138-.05.279-.07.42-.008.057-.02.113-.026.171a5.668 5.668 0 0 0 5.636 6.275 5.668 5.668 0 0 0 5.636-6.275c-.006-.058-.018-.114-.026-.171a5.746 5.746 0 0 0-.07-.42c-.013-.062-.032-.122-.047-.183a5.557 5.557 0 0 0-.109-.388c-.02-.06-.043-.118-.065-.178a5.847 5.847 0 0 0-.147-.367l-.025-.063h-.005a5.666 5.666 0 0 0-5.141-3.292zm11.337-4.206c0-.808-.655-1.463-1.463-1.463h-2.926c-.808 0-1.463.655-1.463 1.463v2.926c0 .808.655 1.463 1.463 1.463h2.926c.808 0 1.463-.655 1.463-1.463V6.125zm0 7.497h-2.697a8.96 8.96 0 1 1-17.28 0H4.777v12.251c0 .809.655 1.463 1.463 1.463h19.749c.808 0 1.463-.655 1.463-1.463V13.622z"/></symbol><symbol id="icon-LINE-GRAPH" viewBox="0 0 32 32"><path d="M28.8 31.086H2.286a1.371 1.371 0 0 1-1.371-1.372V3.2c0-.757.614-1.371 1.371-1.371H28.8c.757 0 1.372.614 1.372 1.371v26.514c0 .757-.614 1.372-1.372 1.372zM27.429 4.571H3.658v23.772h23.771V4.571zM5.683 16.675l-.001-.001 3.657-2.286.001.001a1.367 1.367 0 0 1 1.485.032l.005-.008 6.062 4.041 6.984-4.929a1.371 1.371 0 0 1 1.612 2.218v.001l-7.771 5.486v-.001a1.368 1.368 0 0 1-1.591.011l-6.086-4.057-2.867 1.792a1.371 1.371 0 0 1-1.491-2.301z"/></symbol><symbol id="icon-MAGNIFYING-GLASS" viewBox="0 0 32 32"><path d="M29.307 25.572a2.64 2.64 0 0 1-3.734 3.734l-7.737-7.737a10.488 10.488 0 0 1-5.356 1.471c-5.832 0-10.56-4.727-10.56-10.56S6.648 1.92 12.48 1.92s10.56 4.728 10.56 10.56c0 1.958-.542 3.784-1.47 5.356l7.737 7.737zM12.48 4.559a7.92 7.92 0 1 0 0 15.84 7.92 7.92 0 0 0 0-15.84z"/></symbol><symbol id="icon-pinterest" viewBox="0 0 25 32"><path d="M11.091 19.701c-.231.919-.463 1.883-.704 2.825-.238.929-.446 1.871-.792 2.725-.573 1.414-1.3 2.78-2.255 3.886-.634.736-.499.442-.69.402-.146-.03-.158-.173-.187-.38-.155-1.124-.05-2.422.008-3.685.066-1.438.368-2.635.649-3.83.535-2.277 1.044-4.51 1.584-6.801.036-.152.133-.405.099-.491-.244-.637-.403-1.208-.473-1.876a5.968 5.968 0 0 1 .154-2.144c.305-1.167 1.007-2.202 2.09-2.58.688-.239 1.451-.131 1.914.146.477.285.804.735.957 1.374.163.679.043 1.491-.088 2.088-.295 1.344-.682 2.354-1.034 3.652-.175.644-.372 1.305-.209 1.999.15.638.482 1.077.935 1.407.469.342 1.025.529 1.793.503 1.355-.047 2.296-.914 2.926-1.73 1.006-1.307 1.616-3.072 1.848-5.171.075-.677.129-1.455.077-2.222-.096-1.417-.54-2.556-1.243-3.439-.669-.841-1.618-1.511-2.772-1.888-1.144-.374-2.729-.498-4.136-.257-2.557.438-4.36 1.891-5.423 3.898a7.815 7.815 0 0 0-.924 3.763c0 1.159.286 2.058.748 2.758.146.222.362.405.506.659.204.36-.031.895-.132 1.284-.121.469-.134 1.117-.682 1.128-.227.004-.512-.162-.704-.268-1.439-.796-2.314-2.243-2.673-4.121a9.864 9.864 0 0 1 0-3.573c.21-1.066.601-2.05 1.034-2.848.898-1.658 2.215-2.984 3.817-3.931 1.232-.729 2.621-1.239 4.311-1.485a18.003 18.003 0 0 1 1.771-.145c1.84-.087 3.514.33 4.774.893a9.752 9.752 0 0 1 3.288 2.368c.924 1.009 1.597 2.184 2.024 3.652.222.763.439 1.58.439 2.524 0 .946-.2 1.78-.34 2.613-.523 3.121-2.007 5.673-4.235 7.125a7.306 7.306 0 0 1-1.936.893c-.736.215-1.576.375-2.475.313a5.07 5.07 0 0 1-2.189-.637c-.596-.337-1.097-.749-1.452-1.373z"/></symbol><symbol id="icon-SHOPPING-CART" viewBox="0 0 38 32"><path d="M35.249 8.777l.002.001-4.659 10.352c-.23.51-.727.874-1.313.912s-13.417.894-13.417.894l.775 2.215h14.609a3.107 3.107 0 1 1-3.106 3.107H13.646a3.106 3.106 0 1 1-3.106-3.107h2.806L7.367 6.069H3.81a1.553 1.553 0 0 1 0-3.106h4.659c.678 0 1.248.436 1.46 1.042l.006-.002.904 2.584h22.995a1.553 1.553 0 0 1 1.414 2.189zm-23.321.917l2.871 8.202 13.345-.89 3.291-7.312H11.929z"/></symbol><symbol id="icon-twitter" viewBox="0 0 37 32"><path d="M24.683 2.135c2.713-.049 4.156.94 5.535 2.197 1.171-.1 2.692-.754 3.588-1.21l.871-.476c-.512 1.383-1.206 2.465-2.272 3.287-.237.182-.472.429-.769.545v.017c1.52-.015 2.773-.701 3.963-1.073v.018c-.625.993-1.472 2.002-2.375 2.725l-1.093.868c.02 1.609-.024 3.145-.325 4.497-1.749 7.86-6.383 13.196-13.718 15.482-2.634.821-6.891 1.158-9.909.409-1.497-.371-2.848-.791-4.117-1.345a16.344 16.344 0 0 1-1.982-1.023l-.615-.374c.681.021 1.477.208 2.238.085.688-.111 1.364-.082 1.999-.221 1.584-.348 2.991-.808 4.203-1.516.587-.344 1.479-.747 1.896-1.243-.787.014-1.5-.169-2.084-.375-2.265-.799-3.584-2.271-4.442-4.48.686.076 2.664.254 3.126-.136-.864-.048-1.695-.548-2.289-.92-1.822-1.14-3.308-3.052-3.297-5.995l.717.34c.458.193.923.296 1.469.409.231.048.692.183.957.084h-.034c-.353-.409-.927-.684-1.281-1.124-1.169-1.453-2.265-3.689-1.572-6.353.176-.676.455-1.272.752-1.822l.034.017c.136.285.44.494.632.733.597.74 1.334 1.406 2.084 1.992 2.557 2 4.86 3.229 8.559 4.139.938.231 2.023.408 3.143.409-.315-.917-.214-2.4.034-3.288.623-2.231 1.977-3.839 3.963-4.7a8.407 8.407 0 0 1 1.555-.478l.854-.102z"/></symbol></defs></svg>