<!-- Generated by IcoMoon.io -->
<svg version="1.1" xmlns="http://www.w3.org/2000/svg" width="35" height="32" viewBox="0 0 35 32">
<title>COMPUTER-_-OK</title>
<path fill="#95e1d3" d="M32 25.806c0 0-7.742 0-7.742 0s-2.065 0-2.065 0c0 0 0 2.58 0 2.58s2.065 2.065 2.065 2.065c0 0 0 0.516 0 0.516s-13.419 0-13.419 0c0 0 0-0.516 0-0.516s2.065-2.065 2.065-2.065c0 0 0-2.58 0-2.58s-2.064 0-2.064 0c0 0-7.742 0-7.742 0-0.855 0-1.548-0.693-1.548-1.549 0 0 0-20.645 0-20.645 0-0.855 0.693-1.548 1.548-1.548 0 0 28.903 0 28.903 0 0.855 0 1.548 0.693 1.548 1.548 0 0 0 20.645 0 20.645 0 0.855-0.693 1.549-1.548 1.549zM31.484 4.129c0 0-27.871 0-27.871 0s0 17.548 0 17.548c0 0 27.871 0 27.871 0s0-17.548 0-17.548zM14.452 11.355c0.428 0 0.815 0.174 1.095 0.453 0 0 0 0 0 0s0.97 0.97 0.97 0.97c0 0 3.034-3.034 3.034-3.034s0 0 0 0c0.28-0.28 0.667-0.453 1.095-0.453 0.855 0 1.548 0.693 1.548 1.548 0 0.428-0.173 0.815-0.453 1.095 0 0 0 0 0 0s-4.129 4.129-4.129 4.129c0 0 0 0 0 0-0.28 0.28-0.667 0.454-1.095 0.454s-0.815-0.174-1.095-0.454c0 0 0 0 0 0s-2.064-2.065-2.064-2.065c0 0 0 0 0 0-0.28-0.28-0.454-0.668-0.454-1.095 0-0.855 0.693-1.549 1.548-1.549z"></path>
</svg>
