<!-- Generated by IcoMoon.io -->
<svg version="1.1" xmlns="http://www.w3.org/2000/svg" width="17" height="32" viewBox="0 0 17 32">
<title>facebook</title>
<path fill="#fff" d="M14.443 2.426c0 1.629 0 4.547 0 4.547s-3.352-0.334-4.191 0.95c-0.459 0.702-0.187 2.758-0.227 4.234 1.463 0 2.983 0 4.446 0-0.376 1.726-0.645 2.896-0.921 4.39-1.266 0-3.549 0-3.549 0s0 14.128 0 14.128c0 0-4.19 0-6.159 0 0.001-4.355-0.001-9.437 0-14.073-0.957 0-1.664 0-2.621 0 0-1.629 0-2.816 0-4.446 0.928 0 1.663 0 2.592 0 0.133-3.25 0.183-6.471 1.797-8.11 1.815-1.843 3.545-1.622 8.834-1.622z"></path>
</svg>
