<!-- Generated by IcoMoon.io -->
<svg version="1.1" xmlns="http://www.w3.org/2000/svg" width="34" height="32" viewBox="0 0 34 32">
<title>IMAGE</title>
<path fill="#95e1d3" d="M30.588 31.059c0 0-27.294 0-27.294 0-0.78 0-1.412-0.632-1.412-1.412 0 0 0-27.294 0-27.294 0-0.78 0.632-1.411 1.412-1.411 0 0 27.294 0 27.294 0 0.78 0 1.412 0.632 1.412 1.411 0 0 0 27.294 0 27.294 0 0.78-0.632 1.412-1.412 1.412zM29.177 3.765c0 0-24.471 0-24.471 0s0 24.47 0 24.47c0 0 24.471 0 24.471 0s0-24.47 0-24.47zM8 5.176c0 0 5.176 0 5.176 0s0 0 0 0c0.78 0 1.412 0.632 1.412 1.412s-0.632 1.411-1.412 1.411c0 0 0 0 0 0s-4.235 0-4.235 0c0 0 0 4.235 0 4.235s0 0 0 0c0 0.78-0.632 1.412-1.412 1.412s-1.412-0.632-1.412-1.412c0 0 0 0 0 0s0-5.176 0-5.176c0 0 0 0 0 0s0-1.883 0-1.883c0 0 1.882 0 1.882 0s0 0 0 0zM6.118 19.764c0 0 0 0 0 0 0-0.78 0.632-1.412 1.412-1.412s1.412 0.632 1.412 1.412c0 0 0 0 0 0s0 4.235 0 4.235c0 0 4.235 0 4.235 0s0 0.001 0 0.001c0.78 0 1.412 0.632 1.412 1.411s-0.632 1.412-1.412 1.412c0 0-0 0-0 0s-5.176 0-5.176 0c0 0 0 0 0 0s-1.882 0-1.882 0c0 0 0-1.883 0-1.883s0 0 0 0 0-5.176 0-5.176zM20.706 5.176c0 0 0 0 0 0s5.176 0 5.176 0c0 0 0 0 0 0s1.882 0 1.882 0c0 0 0 1.883 0 1.883s0 0 0 0 0 5.176 0 5.176c0 0 0 0 0 0 0 0.78-0.632 1.412-1.412 1.412s-1.412-0.632-1.412-1.412c0 0 0 0 0 0s0-4.235 0-4.235c0 0-4.235 0-4.235 0s0 0 0 0c-0.78 0-1.412-0.632-1.412-1.411s0.632-1.412 1.412-1.412zM20.706 24c0 0 0-0.001 0-0.001s4.235 0 4.235 0c0 0 0-4.235 0-4.235s0 0 0 0c0-0.78 0.632-1.412 1.412-1.412s1.412 0.632 1.412 1.412c0 0 0 0 0 0s0 5.176 0 5.176c0 0 0 0 0 0s0 1.883 0 1.883c0 0-1.882 0-1.882 0s0 0 0 0-5.176 0-5.176 0c0 0-0 0-0 0-0.78 0-1.412-0.632-1.412-1.412s0.632-1.411 1.412-1.411z"></path>
</svg>
