<!-- Generated by IcoMoon.io -->
<svg version="1.1" xmlns="http://www.w3.org/2000/svg" width="32" height="32" viewBox="0 0 32 32">
<title>instagram</title>
<path fill="#f38181" d="M27.086 30.628c0 0-21.943 0-21.943 0-2.020 0-3.657-1.638-3.657-3.657 0 0 0-21.943 0-21.943 0-2.020 1.637-3.657 3.657-3.657 0 0 21.943 0 21.943 0 2.020 0 3.657 1.638 3.657 3.657 0 0 0 21.943 0 21.943 0 2.020-1.637 3.657-3.657 3.657zM16.114 10.331c-2.281 0-4.241 1.35-5.141 3.292 0 0-0.005 0-0.005 0-0.009 0.021-0.016 0.042-0.025 0.063-0.054 0.12-0.101 0.243-0.147 0.367-0.022 0.060-0.045 0.118-0.065 0.178-0.042 0.127-0.076 0.258-0.109 0.388-0.015 0.061-0.034 0.121-0.047 0.183-0.030 0.138-0.050 0.279-0.070 0.42-0.008 0.057-0.020 0.113-0.026 0.171-0.021 0.2-0.033 0.402-0.033 0.607 0 3.131 2.538 5.668 5.669 5.668s5.669-2.537 5.669-5.668c0-0.205-0.012-0.407-0.033-0.607-0.006-0.058-0.018-0.114-0.026-0.171-0.020-0.142-0.040-0.282-0.070-0.42-0.013-0.062-0.032-0.122-0.047-0.183-0.033-0.131-0.067-0.261-0.109-0.388-0.020-0.060-0.043-0.118-0.065-0.178-0.046-0.124-0.093-0.247-0.147-0.367-0.009-0.020-0.016-0.042-0.025-0.063 0 0-0.005 0-0.005 0-0.9-1.941-2.86-3.292-5.141-3.292zM27.451 6.125c0-0.808-0.655-1.463-1.463-1.463 0 0-2.926 0-2.926 0-0.808 0-1.463 0.655-1.463 1.463 0 0 0 2.926 0 2.926 0 0.808 0.655 1.463 1.463 1.463 0 0 2.926 0 2.926 0 0.808 0 1.463-0.655 1.463-1.463 0 0 0-2.926 0-2.926zM27.451 13.622c0 0-2.697 0-2.697 0 0.208 0.757 0.32 1.555 0.32 2.377 0 4.949-4.012 8.96-8.96 8.96s-8.96-4.011-8.96-8.96c0-0.823 0.112-1.62 0.32-2.377 0 0-2.697 0-2.697 0s0 12.251 0 12.251c0 0.809 0.655 1.463 1.463 1.463 0 0 19.749 0 19.749 0 0.808 0 1.463-0.655 1.463-1.463 0 0 0-12.251 0-12.251z"></path>
</svg>
