<!-- Generated by IcoMoon.io -->
<svg version="1.1" xmlns="http://www.w3.org/2000/svg" width="32" height="32" viewBox="0 0 32 32">
<title>LINE-GRAPH</title>
<path fill="#95e1d3" d="M28.8 31.086c0 0-26.514 0-26.514 0-0.757 0-1.371-0.614-1.371-1.372 0 0 0-26.514 0-26.514 0-0.757 0.614-1.371 1.371-1.371 0 0 26.514 0 26.514 0 0.757 0 1.372 0.614 1.372 1.371 0 0 0 26.514 0 26.514 0 0.757-0.614 1.372-1.372 1.372zM27.429 4.571c0 0-23.771 0-23.771 0s0 23.772 0 23.772c0 0 23.771 0 23.771 0s0-23.772 0-23.772zM5.683 16.675c0 0-0.001-0.001-0.001-0.001s3.657-2.286 3.657-2.286c0 0 0.001 0.001 0.001 0.001 0.209-0.129 0.454-0.203 0.717-0.203 0.285 0 0.549 0.087 0.768 0.235 0 0 0.005-0.008 0.005-0.008s6.062 4.041 6.062 4.041c0 0 6.984-4.929 6.984-4.929 0.227-0.166 0.507-0.264 0.809-0.264 0.757 0 1.371 0.614 1.371 1.371 0 0.457-0.224 0.862-0.568 1.111 0 0 0 0.001 0 0.001s-7.771 5.486-7.771 5.486c0 0-0-0.001-0-0.001-0.226 0.163-0.503 0.26-0.803 0.26-0.293 0-0.565-0.092-0.788-0.249 0 0-6.086-4.057-6.086-4.057s-2.867 1.792-2.867 1.792c-0.22 0.151-0.487 0.24-0.774 0.24-0.757 0-1.371-0.614-1.371-1.372 0-0.494 0.262-0.928 0.654-1.169z"></path>
</svg>
