<!-- Generated by IcoMoon.io -->
<svg version="1.1" xmlns="http://www.w3.org/2000/svg" width="32" height="32" viewBox="0 0 32 32">
<title>MAGNIFYING-GLASS</title>
<path fill="#fff" d="M29.307 25.572c0.478 0.478 0.773 1.138 0.773 1.867 0 1.458-1.182 2.64-2.64 2.64-0.729 0-1.389-0.296-1.867-0.773 0 0 0 0 0 0s-7.737-7.737-7.737-7.737c-1.572 0.929-3.398 1.471-5.356 1.471-5.832 0-10.56-4.727-10.56-10.56s4.728-10.56 10.56-10.56 10.56 4.728 10.56 10.56c0 1.958-0.542 3.784-1.47 5.356 0 0 7.737 7.737 7.737 7.737s0 0 0 0zM12.48 4.559c-4.374 0-7.92 3.546-7.92 7.92s3.546 7.92 7.92 7.92c4.374 0 7.92-3.546 7.92-7.92s-3.546-7.92-7.92-7.92z"></path>
</svg>
