<!-- Generated by IcoMoon.io -->
<svg version="1.1" xmlns="http://www.w3.org/2000/svg" width="37" height="32" viewBox="0 0 37 32">
<title>twitter</title>
<path fill="#f38181" d="M24.683 2.135c2.713-0.049 4.156 0.94 5.535 2.197 1.171-0.1 2.692-0.754 3.588-1.21 0.29-0.158 0.581-0.318 0.871-0.476-0.512 1.383-1.206 2.465-2.272 3.287-0.237 0.182-0.472 0.429-0.769 0.545 0 0.005 0 0.011 0 0.017 1.52-0.015 2.773-0.701 3.963-1.073 0 0.006 0 0.011 0 0.018-0.625 0.993-1.472 2.002-2.375 2.725-0.364 0.289-0.729 0.579-1.093 0.868 0.020 1.609-0.024 3.145-0.325 4.497-1.749 7.86-6.383 13.196-13.718 15.482-2.634 0.821-6.891 1.158-9.909 0.409-1.497-0.371-2.848-0.791-4.117-1.345-0.705-0.308-1.357-0.642-1.982-1.023-0.205-0.125-0.41-0.25-0.615-0.374 0.681 0.021 1.477 0.208 2.238 0.085 0.688-0.111 1.364-0.082 1.999-0.221 1.584-0.348 2.991-0.808 4.203-1.516 0.587-0.344 1.479-0.747 1.896-1.243-0.787 0.014-1.5-0.169-2.084-0.375-2.265-0.799-3.584-2.271-4.442-4.48 0.686 0.076 2.664 0.254 3.126-0.136-0.864-0.048-1.695-0.548-2.289-0.92-1.822-1.14-3.308-3.052-3.297-5.995 0.239 0.114 0.478 0.227 0.717 0.34 0.458 0.193 0.923 0.296 1.469 0.409 0.231 0.048 0.692 0.183 0.957 0.084-0.011 0-0.023 0-0.034 0-0.353-0.409-0.927-0.684-1.281-1.124-1.169-1.453-2.265-3.689-1.572-6.353 0.176-0.676 0.455-1.272 0.752-1.822 0.011 0.006 0.023 0.011 0.034 0.017 0.136 0.285 0.44 0.494 0.632 0.733 0.597 0.74 1.334 1.406 2.084 1.992 2.557 2 4.86 3.229 8.559 4.139 0.938 0.231 2.023 0.408 3.143 0.409-0.315-0.917-0.214-2.4 0.034-3.288 0.623-2.231 1.977-3.839 3.963-4.7 0.475-0.207 1.002-0.357 1.555-0.478 0.285-0.034 0.569-0.068 0.854-0.102z"></path>
</svg>
