<!-- Generated by IcoMoon.io -->
<svg version="1.1" xmlns="http://www.w3.org/2000/svg" width="32" height="32" viewBox="0 0 32 32">
<title>ALARM</title>
<path fill="#95e1d3" d="M29.873 10.826c-1.49-3.479-4.279-6.268-7.757-7.758 0.941-0.74 2.125-1.186 3.415-1.186 3.053 0 5.529 2.475 5.529 5.529 0 1.29-0.445 2.474-1.186 3.415zM29.647 16.941c0 3.626-1.423 6.911-3.729 9.355 0 0 1.909 1.909 1.909 1.909 0.253 0.253 0.409 0.602 0.409 0.987 0 0.771-0.625 1.396-1.396 1.396-0.386 0-0.734-0.156-0.987-0.409 0 0-2.050-2.050-2.050-2.050-2.212 1.546-4.899 2.459-7.802 2.459-2.898 0-5.579-0.909-7.789-2.45 0 0-2.036 2.036-2.036 2.036-0.256 0.255-0.608 0.414-0.998 0.414-0.78 0-1.412-0.632-1.412-1.412 0-0.389 0.158-0.743 0.413-0.998 0 0 1.894-1.893 1.894-1.893-2.3-2.443-3.719-5.724-3.719-9.344 0-7.537 6.11-13.647 13.647-13.647s13.647 6.11 13.647 13.647zM16 6.117c-5.978 0-10.824 4.846-10.824 10.824s4.846 10.824 10.824 10.824c5.978 0 10.823-4.846 10.823-10.824s-4.846-10.824-10.823-10.824zM21.647 18.353c0 0-5.647 0-5.647 0-0.78 0-1.412-0.632-1.412-1.412 0 0 0-7.53 0-7.53 0-0.779 0.632-1.411 1.412-1.411s1.412 0.632 1.412 1.411c0 0 0 6.118 0 6.118s4.235 0 4.235 0c0.78 0 1.412 0.632 1.412 1.412s-0.632 1.412-1.412 1.412zM2.153 11.017c-0.757-0.96-1.212-2.17-1.212-3.488 0-3.119 2.528-5.647 5.647-5.647 1.318 0 2.527 0.455 3.488 1.211-3.553 1.522-6.401 4.371-7.923 7.923z"></path>
</svg>
