<!-- Generated by IcoMoon.io -->
<svg version="1.1" xmlns="http://www.w3.org/2000/svg" width="33" height="32" viewBox="0 0 33 32">
<title>BOOK-2</title>
<path fill="#95e1d3" d="M31.12 25.308c0 0-13.62 5.636-13.62 5.636-0.171 0.074-0.36 0.115-0.559 0.115s-0.387-0.041-0.559-0.115c0 0-13.62-5.636-13.62-5.636-0.516-0.21-0.88-0.716-0.88-1.308 0 0 0-21.647 0-21.647 0-0.78 0.632-1.411 1.412-1.411 0.191 0 0.373 0.038 0.54 0.107 0 0 0 0 0 0s0.002 0.001 0.002 0.001c0.004 0.001 0.008 0.003 0.013 0.005 0 0 13.092 5.417 13.092 5.417s13.092-5.417 13.092-5.417c0.004-0.002 0.008-0.004 0.013-0.005 0 0 0.002-0.001 0.002-0.001s0 0 0 0c0.166-0.069 0.348-0.107 0.54-0.107 0.78 0 1.412 0.632 1.412 1.411 0 0 0 21.647 0 21.647 0 0.591-0.364 1.098-0.88 1.308zM15.529 8.944c0 0-10.824-4.479-10.824-4.479s0 18.591 0 18.591c0 0 10.824 4.479 10.824 4.479s0-18.591 0-18.591zM29.176 4.465c0 0-10.824 4.479-10.824 4.479s0 18.591 0 18.591c0 0 10.824-4.479 10.824-4.479s0-18.591 0-18.591zM20.592 10.95c0 0 5.177-2.353 5.177-2.353s0 0 0 0c0.178-0.081 0.376-0.127 0.584-0.127 0.78 0 1.412 0.632 1.412 1.412 0 0.571-0.34 1.063-0.828 1.285 0 0 0 0 0 0s-5.177 2.353-5.177 2.353c0 0 0 0 0 0-0.178 0.081-0.376 0.127-0.584 0.127-0.78 0-1.412-0.632-1.412-1.412 0-0.571 0.34-1.063 0.828-1.285zM20.592 16.127c0 0 0 0 0 0s5.177-2.353 5.177-2.353c0 0 0 0 0 0 0.178-0.081 0.376-0.126 0.584-0.126 0.78 0 1.412 0.632 1.412 1.411 0 0.572-0.34 1.063-0.828 1.285 0 0-5.177 2.353-5.177 2.353s0-0.001 0-0.001c-0.178 0.081-0.376 0.127-0.584 0.127-0.78 0-1.412-0.632-1.412-1.411 0-0.572 0.34-1.063 0.828-1.285zM20.592 21.303c0 0 0 0 0 0s5.177-2.353 5.177-2.353c0 0 0 0 0 0 0.178-0.081 0.376-0.127 0.584-0.127 0.78 0 1.412 0.632 1.412 1.412 0 0.571-0.34 1.063-0.828 1.285 0 0 0 0 0 0s-5.177 2.353-5.177 2.353c0 0 0 0 0 0-0.178 0.081-0.376 0.127-0.584 0.127-0.78 0-1.412-0.632-1.412-1.412 0-0.571 0.34-1.063 0.828-1.285zM7.529 8.47c0.208 0 0.406 0.045 0.584 0.127 0 0 0 0 0 0s5.176 2.353 5.176 2.353c0 0 0 0 0 0 0.488 0.222 0.828 0.714 0.828 1.285 0 0.78-0.632 1.412-1.412 1.412-0.208 0-0.406-0.045-0.584-0.127 0 0 0 0 0 0s-5.176-2.353-5.176-2.353c0 0 0 0 0 0-0.488-0.222-0.828-0.714-0.828-1.285 0-0.78 0.632-1.412 1.412-1.412zM7.529 13.647c0.208 0 0.406 0.046 0.584 0.126 0 0 0 0 0 0s5.176 2.353 5.176 2.353c0 0 0 0 0 0 0.488 0.222 0.828 0.714 0.828 1.285 0 0.779-0.632 1.411-1.412 1.411-0.208 0-0.406-0.046-0.584-0.127 0 0 0 0.001 0 0.001s-5.176-2.353-5.176-2.353c0 0 0 0 0 0-0.488-0.222-0.828-0.713-0.828-1.285 0-0.78 0.632-1.411 1.412-1.411zM7.529 18.823c0.208 0 0.406 0.046 0.584 0.127 0 0 0 0 0 0s5.176 2.353 5.176 2.353c0 0 0 0 0 0 0.488 0.222 0.828 0.714 0.828 1.285 0 0.78-0.632 1.412-1.412 1.412-0.208 0-0.406-0.046-0.584-0.127 0 0 0 0 0 0s-5.176-2.353-5.176-2.353c0 0 0 0 0 0-0.488-0.222-0.828-0.714-0.828-1.285 0-0.78 0.632-1.412 1.412-1.412z"></path>
</svg>
