<!-- Generated by IcoMoon.io -->
<svg version="1.1" xmlns="http://www.w3.org/2000/svg" width="34" height="32" viewBox="0 0 34 32">
<title>HOME</title>
<path fill="#95e1d3" d="M32.97 16.969c0 0.803-0.651 1.454-1.455 1.454-0.383 0-0.729-0.151-0.989-0.393 0 0-0.004 0.003-0.004 0.003s-13.031-13.031-13.031-13.031c0 0 0-0.001 0-0.001s-0.037-0.035-0.037-0.035c0 0 0-0.001 0-0.001s-13.039 13.039-13.039 13.039c0 0-0.001-0.001-0.001-0.001-0.263 0.259-0.623 0.418-1.021 0.418-0.803 0-1.455-0.651-1.455-1.454 0-0.412 0.172-0.784 0.447-1.048 0 0 14.020-14.020 14.020-14.020 0.265-0.275 0.636-0.447 1.048-0.447 0 0 0 0 0 0s0 0 0 0 0 0 0.001 0c0.026 0 0.051 0.001 0.077 0.002 0.004 0 0.008 0.001 0.012 0.001 0.022 0.002 0.044 0.003 0.065 0.006 0.001 0 0.003 0 0.004 0.001 0.356 0.039 0.673 0.206 0.905 0.454 0 0 0.001-0.001 0.001-0.001s5.723 5.723 5.723 5.723c0 0 0-1.337 0-1.337 0-0.803 0.651-1.455 1.455-1.455s1.455 0.651 1.455 1.455c0 0 0 4.246 0 4.246s5.428 5.428 5.428 5.428c0 0-0.003 0.004-0.003 0.004 0.242 0.26 0.393 0.606 0.393 0.989zM30.061 19.394c0 0 0 4.364 0 4.364s0 1.939 0 1.939c0 0 0 3.879 0 3.879 0 0.803-0.651 1.455-1.455 1.455 0 0-2.909 0-2.909 0s0-11.637 0-11.637c0 0-5.818 0-5.818 0s0 11.637 0 11.637c0 0-13.576 0-13.576 0-0.803 0-1.455-0.651-1.455-1.455 0 0 0-3.879 0-3.879s0-1.939 0-1.939c0 0 0-4.364 0-4.364s12.606-12.606 12.606-12.606c0 0 12.606 12.606 12.606 12.606zM15.030 19.394c0 0-5.818 0-5.818 0s0 5.819 0 5.819c0 0 5.818 0 5.818 0s0-5.819 0-5.819z"></path>
</svg>
