<!-- Generated by IcoMoon.io -->
<svg version="1.1" xmlns="http://www.w3.org/2000/svg" width="25" height="32" viewBox="0 0 25 32">
<title>pinterest</title>
<path fill="#f38181" d="M11.091 19.701c-0.231 0.919-0.463 1.883-0.704 2.825-0.238 0.929-0.446 1.871-0.792 2.725-0.573 1.414-1.3 2.78-2.255 3.886-0.634 0.736-0.499 0.442-0.69 0.402-0.146-0.030-0.158-0.173-0.187-0.38-0.155-1.124-0.050-2.422 0.008-3.685 0.066-1.438 0.368-2.635 0.649-3.83 0.535-2.277 1.044-4.51 1.584-6.801 0.036-0.152 0.133-0.405 0.099-0.491-0.244-0.637-0.403-1.208-0.473-1.876-0.080-0.767-0.019-1.483 0.154-2.144 0.305-1.167 1.007-2.202 2.090-2.58 0.688-0.239 1.451-0.131 1.914 0.146 0.477 0.285 0.804 0.735 0.957 1.374 0.163 0.679 0.043 1.491-0.088 2.088-0.295 1.344-0.682 2.354-1.034 3.652-0.175 0.644-0.372 1.305-0.209 1.999 0.15 0.638 0.482 1.077 0.935 1.407 0.469 0.342 1.025 0.529 1.793 0.503 1.355-0.047 2.296-0.914 2.926-1.73 1.006-1.307 1.616-3.072 1.848-5.171 0.075-0.677 0.129-1.455 0.077-2.222-0.096-1.417-0.54-2.556-1.243-3.439-0.669-0.841-1.618-1.511-2.772-1.888-1.144-0.374-2.729-0.498-4.136-0.257-2.557 0.438-4.36 1.891-5.423 3.898-0.556 1.050-0.924 2.259-0.924 3.763 0 1.159 0.286 2.058 0.748 2.758 0.146 0.222 0.362 0.405 0.506 0.659 0.204 0.36-0.031 0.895-0.132 1.284-0.121 0.469-0.134 1.117-0.682 1.128-0.227 0.004-0.512-0.162-0.704-0.268-1.439-0.796-2.314-2.243-2.673-4.121-0.218-1.14-0.217-2.471 0-3.573 0.21-1.066 0.601-2.050 1.034-2.848 0.898-1.658 2.215-2.984 3.817-3.931 1.232-0.729 2.621-1.239 4.311-1.485 0.561-0.082 1.141-0.116 1.771-0.145 1.84-0.087 3.514 0.33 4.774 0.893 1.33 0.595 2.391 1.386 3.288 2.368 0.924 1.009 1.597 2.184 2.024 3.652 0.222 0.763 0.439 1.58 0.439 2.524 0 0.946-0.2 1.78-0.34 2.613-0.523 3.121-2.007 5.673-4.235 7.125-0.54 0.352-1.194 0.677-1.936 0.893-0.736 0.215-1.576 0.375-2.475 0.313-0.873-0.060-1.588-0.297-2.189-0.637-0.596-0.337-1.097-0.749-1.452-1.373z"></path>
</svg>
